<?xml version="1.0" encoding="UTF-8" standalone="no"?>
<!-- Created with Inkscape (http://www.inkscape.org/) -->

<svg
   width="2048"
   height="2048"
   viewBox="0 0 860.67489 860.67489"
   version="1.1"
   id="svg1"
   xml:space="preserve"
   xmlns:xlink="http://www.w3.org/1999/xlink"
   xmlns="http://www.w3.org/2000/svg"
   xmlns:svg="http://www.w3.org/2000/svg"><defs
     id="defs1"><linearGradient
       id="swatch52"><stop
         style="stop-color:#d5673e;stop-opacity:1;"
         offset="0"
         id="stop52" /></linearGradient><linearGradient
       id="swatch48"><stop
         style="stop-color:#558387;stop-opacity:1;"
         offset="0"
         id="stop48" /></linearGradient><linearGradient
       id="swatch47"><stop
         style="stop-color:#749c6f;stop-opacity:1;"
         offset="0"
         id="stop47" /></linearGradient><linearGradient
       id="swatch46"><stop
         style="stop-color:#bc5429;stop-opacity:1;"
         offset="0"
         id="stop46" /></linearGradient><linearGradient
       id="swatch45"><stop
         style="stop-color:#4689cc;stop-opacity:1;"
         offset="0"
         id="stop45" /></linearGradient><linearGradient
       id="swatch44"><stop
         style="stop-color:#0e2a35;stop-opacity:1;"
         offset="0"
         id="stop44" /></linearGradient><linearGradient
       id="swatch43"><stop
         style="stop-color:#282828;stop-opacity:1;"
         offset="0"
         id="stop43" /></linearGradient><linearGradient
       id="swatch42"><stop
         style="stop-color:#bb362a;stop-opacity:1;"
         offset="0"
         id="stop42" /></linearGradient><linearGradient
       id="swatch41"><stop
         style="stop-color:#ce9c3e;stop-opacity:1;"
         offset="0"
         id="stop41" /></linearGradient><linearGradient
       id="swatch40"><stop
         style="stop-color:#ffc932;stop-opacity:1;"
         offset="0"
         id="stop40" /></linearGradient><linearGradient
       id="swatch39"><stop
         style="stop-color:#ff6632;stop-opacity:1;"
         offset="0"
         id="stop39" /></linearGradient><linearGradient
       id="swatch38"><stop
         style="stop-color:#052e43;stop-opacity:1;"
         offset="0"
         id="stop38" /></linearGradient><linearGradient
       id="swatch37"
       gradientTransform="translate(808.28233,2.377301)"><stop
         style="stop-color:#052e43;stop-opacity:1;"
         offset="0"
         id="stop37" /></linearGradient><linearGradient
       id="swatch36"><stop
         style="stop-color:#0a5491;stop-opacity:1;"
         offset="0"
         id="stop36" /></linearGradient><linearGradient
       id="swatch35"><stop
         style="stop-color:#2d83ba;stop-opacity:1;"
         offset="0"
         id="stop35" /></linearGradient><linearGradient
       xlink:href="#swatch52"
       id="linearGradient52"
       x1="-82.956146"
       y1="108.3355"
       x2="19.017584"
       y2="108.3355"
       gradientUnits="userSpaceOnUse" /><linearGradient
       xlink:href="#swatch52"
       id="linearGradient4"
       gradientUnits="userSpaceOnUse"
       x1="-82.956146"
       y1="108.3355"
       x2="19.017584"
       y2="108.3355" /><linearGradient
       xlink:href="#swatch52"
       id="linearGradient5"
       gradientUnits="userSpaceOnUse"
       x1="-82.956146"
       y1="108.3355"
       x2="19.017584"
       y2="108.3355" /><linearGradient
       xlink:href="#swatch52"
       id="linearGradient6"
       gradientUnits="userSpaceOnUse"
       x1="-82.956146"
       y1="108.3355"
       x2="19.017584"
       y2="108.3355" /><linearGradient
       xlink:href="#swatch52"
       id="linearGradient7"
       gradientUnits="userSpaceOnUse"
       x1="-82.956146"
       y1="108.3355"
       x2="19.017584"
       y2="108.3355" /></defs><g
     id="layer1"><g
       id="g4"
       transform="matrix(9.1214422,0,0,9.1214422,-185.37462,-1678.7355)"><path
         id="path182"
         style="fill:#052e43;fill-opacity:1;stroke:#052e43;stroke-width:1.23909;stroke-dasharray:none;stroke-opacity:1"
         d="m 67.17288,188.26972 c -12.344229,7.18717 -24.688606,14.37409 -37.032295,21.56218 0.05021,14.34991 0.102036,28.69983 0.154392,43.04974 12.453085,7.13262 24.908055,14.26195 37.361669,21.39363 12.401474,-7.22215 24.804505,-14.44164 37.205984,-21.66382 -0.0507,-14.34991 -0.10291,-28.69982 -0.15569,-43.04974 -12.452647,-7.13261 -24.907178,-14.26195 -37.360363,-21.39363 -0.0579,0.0339 -0.115794,0.0677 -0.173697,0.10164 z" /><path
         d="m -247.0443,293.65399 c 0.3835,1.38284 0.82817,2.21905 1.334,2.50865 l 6.88304,3.9406 c 0.72263,0.41371 1.08003,-0.48956 1.07219,-2.70981 l -0.003,-0.91586 c -0.008,-2.22023 -0.37307,-3.53721 -1.0957,-3.95092 l -6.07005,-3.47517 c -0.72263,-0.41371 -1.08786,-1.73069 -1.09569,-3.95091 l -0.16083,-45.62426 c -0.008,-2.22009 -0.37304,-3.53699 -1.09564,-3.9507 l -0.29808,-0.17066 c -0.72261,-0.41371 -1.08,0.48947 -1.07218,2.70956 l 0.16928,48.03877 c 0.006,1.60967 0.19112,3.07299 0.55634,4.38996 z m 11.18819,5.40825 c 0.006,1.8317 0.34392,2.9389 1.01235,3.32158 l 0.32518,0.18617 c 0.65036,0.37234 1.03524,-0.40441 1.15464,-2.33024 l 0.64216,-9.60318 c 0.13746,-1.91545 0.52234,-2.69217 1.15463,-2.33018 l 4.09181,2.34262 c 0.65035,0.37233 1.04229,1.59379 1.17581,3.66438 l 0.7128,10.37889 c 0.1516,2.08097 0.54354,3.30245 1.17583,3.66444 l 0.32518,0.18617 c 0.66843,0.38268 0.9995,-0.31408 0.99321,-2.09028 -0.002,-0.49955 -0.012,-0.83777 -0.0307,-1.01464 l -3.71067,-55.13435 c -0.13352,-2.07048 -0.52545,-3.29189 -1.17579,-3.66423 l -3.41425,-1.95476 c -0.63228,-0.362 -1.01714,0.41467 -1.1546,2.33002 l -3.25379,51.14724 c -0.0175,0.15617 -0.0255,0.45628 -0.0239,0.90033 z m 3.98178,-21.15164 c -0.002,-0.44404 0.006,-0.74414 0.0239,-0.9003 l 1.3582,-21.24046 c 0.13746,-1.91536 0.4049,-2.75927 0.80232,-2.53173 0.4155,0.23788 0.69001,1.39207 0.82352,3.46256 l 1.56841,22.91599 c 0.0187,0.17686 0.0289,0.51506 0.0307,1.0146 0.006,1.77614 -0.32479,2.47288 -0.9932,2.0902 l -2.6014,-1.48934 c -0.66843,-0.38269 -1.00587,-1.48985 -1.01235,-3.3215 z m 12.04303,33.06798 0.29809,0.17066 c 0.72261,0.4137 1.07999,-0.48957 1.07213,-2.70982 l -0.10884,-30.72204 c -0.007,-1.88713 0.17966,-2.72209 0.55902,-2.5049 0.28904,0.16548 0.52624,0.96598 0.71161,2.4015 l 4.72143,35.02454 c 0.25882,1.80998 0.67727,2.88046 1.25536,3.21142 l 0.29807,0.17065 c 0.72262,0.4137 1.07999,-0.48958 1.07211,-2.70982 l -0.18875,-53.20082 c -0.008,-2.22009 -0.37311,-3.53699 -1.0957,-3.95069 l -0.29806,-0.17065 c -0.72259,-0.4137 -1.07994,0.48949 -1.07207,2.70958 l 0.10393,29.30581 c 0.006,1.83164 -0.17091,2.64404 -0.53221,2.43719 -0.28904,-0.16548 -0.53528,-0.97116 -0.73872,-2.41703 l -4.47215,-33.38539 c -0.24074,-1.79952 -0.65918,-2.86993 -1.25531,-3.21124 l -0.54195,-0.31028 c -0.72258,-0.4137 -1.07994,0.4895 -1.07208,2.70959 l 0.18838,53.20081 c 0.008,2.22025 0.3731,3.53723 1.09571,3.95093 z m 14.03084,6.37096 c 0.36525,1.31698 0.80982,2.12544 1.33371,2.42537 l 5.20278,2.97863 c 0.52389,0.29994 0.96451,-0.002 1.32187,-0.90502 l 0.88445,-2.2356 c 0.35736,-0.90327 0.53317,-2.15974 0.52745,-3.76941 l -0.0376,-10.57377 c -0.008,-2.2202 -0.37314,-3.53714 -1.09574,-3.95084 l -0.29807,-0.17065 c -0.72259,-0.4137 -1.07994,0.48955 -1.07205,2.70975 l 0.029,8.15927 c 0.008,2.22023 -0.34947,3.12349 -1.07207,2.70979 l -3.63109,-2.07884 c -0.72261,-0.4137 -1.08786,-1.73066 -1.09574,-3.95089 l -0.13512,-38.04815 c -0.008,-2.22011 0.34947,-3.12332 1.07206,-2.70962 l 3.63099,2.07884 c 0.72258,0.4137 1.08782,1.73061 1.09571,3.95072 l 0.032,8.99151 c 0.008,2.22015 0.37313,3.53707 1.09571,3.95077 l 0.29807,0.17065 c 0.72259,0.4137 1.07994,-0.48953 1.07204,-2.70967 l -0.0406,-11.40589 c -0.006,-1.60959 -0.19121,-3.07282 -0.55644,-4.38972 l -0.90397,-3.25931 c -0.36523,-1.3169 -0.80979,-2.12531 -1.33366,-2.42524 l -5.20258,-2.97864 c -0.52387,-0.29993 -0.96448,0.002 -1.32183,0.9049 l -0.88445,2.23541 c -0.35735,0.90319 -0.53317,2.15958 -0.52746,3.76916 l 0.1522,42.87703 c 0.006,1.60967 0.19119,3.07299 0.55644,4.38996 z"
         id="path193"
         style="font-size:42.5888px;line-height:1.25;font-family:'WDXL Lubrifont TC';-inkscape-font-specification:'WDXL Lubrifont TC, Normal';fill:#4689cc;fill-opacity:1;stroke-width:0.887264"
         aria-label="LANC"
         transform="matrix(0.65874081,0,0,0.65874081,196.04176,57.607463)" /><g
         id="g198"
         transform="matrix(0.65874081,0,0,0.65874081,131.67492,138.6391)"
         style="fill:#4689cc;fill-opacity:1"><path
           style="font-size:43.6187px;line-height:1.25;font-family:'WDXL Lubrifont TC';-inkscape-font-specification:'WDXL Lubrifont TC, Normal';fill:#4689cc;fill-opacity:1;stroke-width:0.870453"
           d="m -62.846822,180.49371 c 0.368237,0.94913 0.79509,1.28238 1.28056,0.99975 l 6.605888,-3.84581 c 0.693531,-0.40376 1.036364,-1.71145 1.028498,-3.92307 l -0.0032,-0.91229 c -0.0079,-2.21162 -0.358564,-3.11555 -1.052095,-2.71179 l -5.851673,3.40672 c -0.693532,0.40376 -1.044231,-0.50017 -1.052097,-2.71179 l -0.04454,-12.5233 c -0.0079,-2.21161 0.334968,-3.5193 1.0285,-3.92306 l 5.851673,-3.40672 c 0.693532,-0.40376 1.036364,-1.71145 1.028499,-3.92307 l -0.0032,-0.91229 c -0.0079,-2.21162 -0.358564,-3.11555 -1.052095,-2.71179 l -5.851674,3.40672 c -0.693532,0.40376 -1.044231,-0.50017 -1.052096,-2.7118 l -0.03952,-11.11338 c -0.0079,-2.21162 0.334968,-3.51932 1.0285,-3.92307 l 5.851673,-3.40672 c 0.693531,-0.40376 1.036364,-1.71145 1.028499,-3.92306 l -0.0032,-0.9123 c -0.0079,-2.21162 -0.358563,-3.11555 -1.052095,-2.71179 l -8.192339,4.7694 c -0.693532,0.40376 -1.036366,1.71145 -1.0285,3.92308 l 0.169892,47.77097 c 0.0057,1.60342 0.183904,2.8571 0.534604,3.76102 z"
           id="path194" /><path
           id="path195"
           style="font-size:38.3671px;line-height:1.25;font-family:'WDXL Lubrifont TC';-inkscape-font-specification:'WDXL Lubrifont TC, Normal';fill:#4689cc;fill-opacity:1;stroke-width:0.799317"
           d="m -94.009508,64.600946 c -1.058491,0.189669 -1.580093,0.895673 -1.565975,2.117558 l 0.337254,29.187752 c 0.01412,1.221883 0.549843,1.738094 1.608334,1.548425 l 0.436541,-0.07822 c 1.058492,-0.189669 1.581061,-0.895513 1.566942,-2.117396 l -0.113832,-9.851593 c -0.01412,-1.221887 0.508451,-1.92772 1.566942,-2.117389 l 2.023697,-0.362622 c 1.058491,-0.189669 1.595179,0.326359 1.609297,1.548245 l 0.08153,7.056319 c 0.01024,0.885862 0.2837,1.587004 0.820004,2.103111 l 1.327092,1.277339 c 0.536305,0.516107 1.187857,0.70528 1.955262,0.56777 l 1.66714,-0.298731 c 1.058492,-0.189669 1.581061,-0.895501 1.566943,-2.117384 l -0.0058,-0.504006 c -0.01412,-1.221895 -0.550805,-1.737909 -1.609297,-1.54824 l -0.515561,0.09238 c -1.058491,0.189669 -1.595179,-0.32637 -1.609297,-1.548252 l -0.06618,-5.727501 c -0.01412,-1.221886 0.07209,-1.849529 0.257321,-1.882721 0.158774,-0.02845 0.499312,-0.395396 1.021499,-1.101173 l 1.135261,-1.534994 c 0.287203,-0.388177 0.481577,-0.790392 0.582837,-1.206472 0.127724,-0.420822 0.188986,-0.860302 0.183692,-1.318509 l -0.115949,-10.034778 c -0.01023,-0.885868 -0.283699,-1.587002 -0.820004,-2.103111 l -1.327091,-1.277328 c -0.536305,-0.516109 -1.188824,-0.705455 -1.95623,-0.567945 z m 3.660962,3.522607 5.278956,-0.945924 c 1.058492,-0.189669 1.595179,0.326359 1.609298,1.548245 l 0.08524,7.377144 c 0.01412,1.221885 -0.508451,1.927718 -1.566942,2.117387 l -5.278957,0.945925 c -1.05849,0.189669 -1.595178,-0.326359 -1.609296,-1.548244 l -0.08524,-7.377144 c -0.01412,-1.221886 0.50845,-1.92772 1.566941,-2.117389 z"
           transform="scale(0.55478687,1.802494)" /><path
           style="font-size:38.3671px;line-height:1.25;font-family:'WDXL Lubrifont TC';-inkscape-font-specification:'WDXL Lubrifont TC, Normal';fill:#4689cc;fill-opacity:1;stroke-width:0.799317"
           d="m -126.63597,101.53223 c 0.0141,1.22188 0.55042,1.73799 1.60891,1.54832 l 0.43663,-0.0782 c 1.0585,-0.18967 1.58069,-0.89544 1.56657,-2.11732 l -0.28961,-25.06394 c -0.0141,-1.221886 0.50807,-1.927663 1.56656,-2.117332 l 2.85792,-0.512105 c 1.0585,-0.18967 1.58069,-0.895447 1.56657,-2.117333 l -0.006,-0.504028 c -0.0141,-1.221886 -0.55043,-1.737994 -1.60893,-1.548325 l -12.54312,2.247575 c -1.05849,0.18967 -1.58068,0.895447 -1.56656,2.117333 l 0.006,0.504028 c 0.0141,1.221886 0.55043,1.737994 1.60892,1.548325 l 2.89762,-0.519219 c 1.05849,-0.189668 1.5948,0.326441 1.60891,1.548326 z"
           id="path196"
           transform="scale(0.55478687,1.802494)" /><path
           style="font-size:38.3671px;line-height:1.25;font-family:'WDXL Lubrifont TC';-inkscape-font-specification:'WDXL Lubrifont TC, Normal';fill:#4689cc;fill-opacity:1;stroke-width:0.799317"
           d="m -149.70423,105.11479 1.32736,1.27737 c 0.53631,0.51611 1.18816,0.70541 1.95557,0.5679 l 7.66084,-1.37273 c 0.7674,-0.13751 1.41219,-0.55915 1.93438,-1.26493 l 1.25325,-1.69387 c 0.57441,-0.77635 0.83021,-1.58744 0.76739,-2.43328 l -0.108,-9.347429 c -0.0102,-0.885867 -0.28351,-1.586856 -0.81981,-2.102964 l -1.28714,-1.23866 c -0.5363,-0.516109 -1.18815,-0.705409 -1.95556,-0.5679 l -6.50973,1.166465 c -1.05848,0.189668 -1.59479,-0.326441 -1.60891,-1.548327 l -0.0768,-6.644005 c -0.0141,-1.221886 0.50807,-1.927663 1.56656,-2.117332 l 5.31892,-0.953085 c 1.05849,-0.18967 1.5948,0.326438 1.60892,1.548324 l 0.0344,2.978348 c 0.0141,1.221886 0.55043,1.737995 1.60892,1.548326 l 0.43663,-0.07824 c 1.05848,-0.189669 1.58067,-0.895446 1.56655,-2.117332 l -0.0498,-4.307147 c -0.0102,-0.885868 -0.2835,-1.586856 -0.81981,-2.102965 l -1.28713,-1.238661 c -0.56312,-0.541915 -1.21514,-0.746488 -1.95609,-0.61372 l -7.70053,1.379841 c -0.76741,0.137511 -1.41221,0.559155 -1.93439,1.264932 l -1.25325,1.693867 c -0.5483,0.741066 -0.8041,1.552162 -0.7674,2.433288 l 0.10748,9.301606 c 0.0102,0.885868 0.28351,1.586856 0.81981,2.102965 l 1.28713,1.238659 c 0.53631,0.516109 1.2014,0.703037 1.99527,0.560785 l 6.47002,-1.15935 c 1.0585,-0.189669 1.59481,0.326439 1.60892,1.548325 l 0.0773,6.689825 c 0.0141,1.221879 -0.50807,1.927659 -1.56656,2.117329 l -5.31892,0.95309 c -1.05849,0.18966 -1.59479,-0.32644 -1.60891,-1.54833 l -0.0344,-2.978343 c -0.0141,-1.221886 -0.55042,-1.737994 -1.60892,-1.548324 l -0.43662,0.07824 c -1.05849,0.189669 -1.58068,0.895447 -1.56656,2.117333 l 0.0498,4.307157 c 0.0102,0.88586 0.28351,1.58684 0.81981,2.10295 z"
           id="path197"
           transform="scale(0.55478687,1.802494)" /><path
           id="path198"
           style="font-size:38.3671px;line-height:1.25;font-family:'WDXL Lubrifont TC';-inkscape-font-specification:'WDXL Lubrifont TC, Normal';fill:#4689cc;fill-opacity:1;stroke-width:0.799317"
           d="m -165.93361,77.48887 c -0.92618,0.165959 -1.48859,0.817816 -1.68759,1.955447 l -4.70315,30.136913 c -0.0254,0.0964 -0.0374,0.26687 -0.0346,0.51125 0.0116,1.00805 0.50698,1.42428 1.48609,1.24884 l 0.47701,-0.0855 c 0.95265,-0.17071 1.51507,-0.82222 1.6876,-1.95512 l 0.92904,-5.6763 c 0.19899,-1.13763 0.76141,-1.78949 1.68759,-1.95545 l 5.994,-1.07405 c 0.95264,-0.1707 1.52777,0.27732 1.72571,1.34383 l 1.05514,5.32076 c 0.2244,1.06177 0.80049,1.50927 1.72667,1.34331 l 0.47606,-0.0853 c 0.9791,-0.17544 1.46297,-0.75177 1.45168,-1.72928 -0.003,-0.27492 -0.0183,-0.4559 -0.0459,-0.5428 l -5.4982,-28.308951 c -0.19795,-1.066504 -0.77307,-1.514529 -1.72572,-1.343825 z m 2.54889,3.721876 c 0.60864,-0.10906 1.01221,0.36936 1.21015,1.435867 l 2.323,11.751422 c 0.0276,0.08689 0.0427,0.267873 0.0459,0.542797 0.0113,0.977509 -0.47257,1.554174 -1.45168,1.729618 l -3.81033,0.682765 c -0.97911,0.175444 -1.47445,-0.241124 -1.4861,-1.249179 -0.003,-0.244377 0.008,-0.414693 0.0337,-0.51108 l 1.96337,-12.519489 c 0.199,-1.137633 0.58986,-1.758406 1.17203,-1.862724 z"
           transform="scale(0.55478687,1.802494)" /></g><g
         id="g202"
         transform="matrix(0.65874081,0,0,0.65874081,88.50905,138.08877)"
         style="display:inline;fill:url(#linearGradient52);fill-opacity:1"><path
           style="font-size:43.6187px;line-height:1.25;font-family:'WDXL Lubrifont TC';-inkscape-font-specification:'WDXL Lubrifont TC, Normal';fill:url(#linearGradient4);fill-opacity:1;stroke-width:0.90872"
           d="m 15.508226,72.424328 0.496398,-0.114013 c 1.203392,-0.276396 0.273507,-0.760527 -2.789651,-1.452393 l -29.980461,-6.771591 c -3.063115,-0.691856 -3.992985,-1.175982 -2.789614,-1.452378 l 6.046954,-1.388892 c 1.203375,-0.276397 3.336626,-0.06867 6.3997547,0.623188 L 22.8722,68.639841 c 3.063172,0.691866 5.196459,0.8996 6.399858,0.623203 l 0.496401,-0.114013 c 1.2034,-0.276398 0.27351,-0.76053 -2.789668,-1.452396 L -46.536254,51.092129 c -3.063074,-0.691842 -5.196287,-0.899564 -6.399641,-0.623167 l -0.496383,0.114014 c -1.203353,0.276397 -0.273497,0.760517 2.789572,1.452359 l 23.892077,5.396404 c 3.063105,0.691851 3.992974,1.175975 2.789604,1.452372 l -6.046924,1.388893 c -1.203366,0.276396 -3.336596,0.06867 -6.399688,-0.623183 l -23.891972,-5.396404 c -3.063054,-0.691842 -5.196254,-0.899565 -6.3996,-0.623169 l -0.49638,0.114013 c -1.203345,0.276395 -0.273494,0.760514 2.789555,1.452356 L 9.1084084,71.801122 c 3.0631526,0.691866 5.1964266,0.899602 6.3998176,0.623206 z"
           transform="scale(0.62810752,1.5920841)"
           id="path199" /><path
           style="font-size:43.6187px;line-height:1.25;font-family:'WDXL Lubrifont TC';-inkscape-font-specification:'WDXL Lubrifont TC, Normal';fill:url(#linearGradient5);fill-opacity:1;stroke-width:0.90872"
           d="m -8.5854452,76.91162 c 2.1332507,0.207737 3.6361019,0.211413 4.5085522,0.01103 L 4.5874628,74.932614 C 5.4599178,74.732228 5.4312058,74.38997 4.501327,73.90584 L 2.1998716,72.707617 C 1.269994,72.223488 -0.30533354,71.730622 -2.5261098,71.229021 L -17.114247,67.934032 c -3.063114,-0.691859 -5.196355,-0.899591 -6.399725,-0.623196 l -0.49639,0.114013 c -1.203369,0.276394 -0.273501,0.76052 2.789607,1.452379 l 11.2569586,2.542588 c 3.0631282,0.691863 3.9930041,1.175992 2.789625,1.452386 l -6.0469686,1.388877 c -1.203375,0.276393 -3.336621,0.06866 -6.399736,-0.623205 L -72.114344,61.781221 c -3.063038,-0.691846 -3.992885,-1.175965 -2.789544,-1.452358 l 6.046798,-1.388878 c 1.203345,-0.276394 3.336542,-0.06867 6.399593,0.623177 l 12.405401,2.801985 c 3.063073,0.69185 5.19629,0.899579 6.399648,0.623184 l 0.496386,-0.114013 c 1.203359,-0.276394 0.273498,-0.760517 -2.789581,-1.452368 L -61.68214,57.867584 c -2.220714,-0.501588 -4.397668,-0.856244 -6.530865,-1.063968 l -5.279652,-0.514117 c -2.133189,-0.207724 -3.635994,-0.211393 -4.508416,-0.01101 l -8.664028,1.990034 c -0.872417,0.200385 -0.843704,0.542636 0.08614,1.026753 l 2.301358,1.198192 c 0.929847,0.484118 2.505117,0.97697 4.725812,1.478557 l 59.155546,13.361436 c 2.220758,0.501602 4.397758,0.856271 6.531,1.064008 z"
           transform="scale(0.62810752,1.5920841)"
           id="path200" /><path
           style="font-size:43.6187px;line-height:1.25;font-family:'WDXL Lubrifont TC';-inkscape-font-specification:'WDXL Lubrifont TC, Normal';fill:url(#linearGradient6);fill-opacity:1;stroke-width:0.90872"
           d="m -30.861528,81.871023 c 2.239899,0.218125 3.781026,0.23045 4.623381,0.03698 l 11.462111,-2.632624 c 1.203376,-0.276392 0.273504,-0.760521 -2.789613,-1.452387 l -1.263536,-0.285395 c -3.063109,-0.691864 -5.196348,-0.8996 -6.399718,-0.623208 l -10.153401,2.33205 c -1.203364,0.27639 -3.336589,0.06865 -6.399673,-0.623209 l -17.344632,-3.917656 c -3.063055,-0.691856 -3.992907,-1.175979 -2.789557,-1.45237 l 10.153277,-2.33205 c 1.203356,-0.276392 0.2735,-0.760516 -2.789567,-1.452371 l -1.263511,-0.285389 c -3.063061,-0.691853 -5.196265,-0.899583 -6.399614,-0.623191 l -10.15323,2.33205 c -1.203343,0.27639 -3.336533,0.06866 -6.399565,-0.623192 l -15.391675,-3.476538 c -3.063007,-0.691846 -3.992844,-1.175964 -2.789514,-1.452354 l 10.153114,-2.332051 c 1.203337,-0.276392 0.273495,-0.76051 -2.789523,-1.452354 l -1.263492,-0.285385 c -3.063012,-0.691842 -5.196182,-0.899567 -6.399513,-0.623175 l -14.214271,3.264867 c -1.20333,0.27639 -0.27349,0.760506 2.78949,1.452348 l 66.161549,14.944027 c 2.220734,0.501601 4.397715,0.85627 6.530944,1.064006 z"
           id="path201"
           transform="scale(0.62810752,1.5920841)" /><path
           style="font-size:43.6187px;line-height:1.25;font-family:'WDXL Lubrifont TC';-inkscape-font-specification:'WDXL Lubrifont TC, Normal';fill:url(#linearGradient7);fill-opacity:1;stroke-width:0.90872"
           d="m -48.587816,85.00052 c 3.063073,0.691866 5.196291,0.899605 6.399652,0.623217 l 0.49639,-0.114011 c 1.203354,-0.276387 0.27349,-0.760514 -2.78959,-1.45238 L -107.31185,69.865653 c -3.06299,-0.691845 -3.99282,-1.175962 -2.7895,-1.452351 l 3.24898,-0.746251 c 1.20332,-0.27639 0.27349,-0.760507 -2.7895,-1.45235 l -1.26348,-0.285386 c -3.06298,-0.691842 -5.19613,-0.899568 -6.39945,-0.623178 l -14.25927,3.275201 c -1.20331,0.276387 -0.27349,0.760501 2.78947,1.452343 l 1.26347,0.285386 c 3.06296,0.691843 5.19611,0.899572 6.39942,0.623184 l 3.29408,-0.756609 c 1.20332,-0.276388 3.33647,-0.06866 6.39945,0.623186 z"
           transform="scale(0.62810752,1.5920841)"
           id="path202" /></g></g></g></svg>
